<svg width="28" height="28" viewBox="0 0 28 28" fill="none" xmlns="http://www.w3.org/2000/svg">
<g clip-path="url(#clip0_491_1894)">
<path d="M21 21H20.8223C20.6126 19.9792 20.2435 19.0404 19.7148 18.1836C19.1862 17.3268 18.5436 16.5885 17.7871 15.9688C17.0306 15.349 16.1784 14.8659 15.2305 14.5195C14.2826 14.1732 13.2891 14 12.25 14C11.4479 14 10.6732 14.1048 9.92578 14.3145C9.17839 14.5241 8.48112 14.8158 7.83398 15.1895C7.18685 15.5632 6.59896 16.0189 6.07031 16.5566C5.54167 17.0944 5.08594 17.6868 4.70312 18.334C4.32031 18.9811 4.02409 19.6784 3.81445 20.4258C3.60482 21.1732 3.5 21.9479 3.5 22.75H1.75C1.75 21.6562 1.90951 20.6035 2.22852 19.5918C2.54753 18.5801 3.00781 17.6458 3.60938 16.7891C4.21094 15.9323 4.92188 15.1712 5.74219 14.5059C6.5625 13.8405 7.49219 13.3164 8.53125 12.9336C7.5013 12.2591 6.69922 11.4115 6.125 10.3906C5.55078 9.36979 5.25911 8.23958 5.25 7C5.25 6.03385 5.43229 5.12695 5.79688 4.2793C6.16146 3.43164 6.6582 2.6888 7.28711 2.05078C7.91602 1.41276 8.65885 0.911458 9.51562 0.546875C10.3724 0.182292 11.2839 0 12.25 0C13.2161 0 14.123 0.182292 14.9707 0.546875C15.8184 0.911458 16.5612 1.4082 17.1992 2.03711C17.8372 2.66602 18.3385 3.40885 18.7031 4.26562C19.0677 5.1224 19.25 6.03385 19.25 7C19.25 7.60156 19.1771 8.18945 19.0312 8.76367C18.8854 9.33789 18.6667 9.88021 18.375 10.3906C18.0833 10.901 17.7415 11.3704 17.3496 11.7988C16.9577 12.2272 16.4974 12.6055 15.9688 12.9336C16.9896 13.3255 17.9284 13.8633 18.7852 14.5469C19.6419 15.2305 20.3802 16.0326 21 16.9531V21ZM7 7C7 7.72917 7.13672 8.4082 7.41016 9.03711C7.68359 9.66602 8.05729 10.222 8.53125 10.7051C9.00521 11.1882 9.5612 11.5664 10.1992 11.8398C10.8372 12.1133 11.5208 12.25 12.25 12.25C12.9701 12.25 13.6491 12.1133 14.2871 11.8398C14.9251 11.5664 15.4811 11.1927 15.9551 10.7188C16.429 10.2448 16.8073 9.6888 17.0898 9.05078C17.3724 8.41276 17.5091 7.72917 17.5 7C17.5 6.27995 17.3633 5.60091 17.0898 4.96289C16.8164 4.32487 16.4427 3.76888 15.9688 3.29492C15.4948 2.82096 14.9342 2.44271 14.2871 2.16016C13.64 1.8776 12.9609 1.74089 12.25 1.75C11.5208 1.75 10.8418 1.88672 10.2129 2.16016C9.58398 2.43359 9.02799 2.80729 8.54492 3.28125C8.06185 3.75521 7.68359 4.31576 7.41016 4.96289C7.13672 5.61003 7 6.28906 7 7ZM24.5 22.75H28V24.5H24.5V28H22.75V24.5H19.25V22.75H22.75V19.25H24.5V22.75Z" fill="#85CC16"/>
</g>
<defs>
<clipPath id="clip0_491_1894">
<rect width="28" height="28" fill="white"/>
</clipPath>
</defs>
</svg>
