<svg width="24" height="24" viewBox="0 0 24 24" fill="none" xmlns="http://www.w3.org/2000/svg">
<path d="M7.70655 15.9183C5.58956 13.7972 3.96151 11.2393 2.93627 8.42331C2.37222 6.88375 2.88902 5.19259 4.04861 4.033L4.76622 3.31637C4.95915 3.12306 5.1883 2.96969 5.44057 2.86505C5.69284 2.76041 5.96327 2.70654 6.23639 2.70654C6.5095 2.70654 6.77993 2.76041 7.0322 2.86505C7.28447 2.96969 7.51363 3.12306 7.70655 3.31637L9.38688 4.9967C9.58019 5.18963 9.73356 5.41878 9.8382 5.67105C9.94285 5.92332 9.99671 6.19375 9.99671 6.46687C9.99671 6.73998 9.94285 7.01041 9.8382 7.26268C9.73356 7.51495 9.58019 7.74411 9.38688 7.93703L8.97344 8.35047C8.80795 8.51592 8.67668 8.71235 8.58711 8.92855C8.49755 9.14474 8.45145 9.37646 8.45145 9.61047C8.45145 9.84448 8.49755 10.0762 8.58711 10.2924C8.67668 10.5086 8.80795 10.705 8.97344 10.8705L12.7534 14.6515C12.9189 14.8169 13.1153 14.9482 13.3315 15.0378C13.5477 15.1273 13.7794 15.1734 14.0134 15.1734C14.2475 15.1734 14.4792 15.1273 14.6954 15.0378C14.9116 14.9482 15.108 14.8169 15.2734 14.6515L15.6879 14.238C15.8808 14.0447 16.1099 13.8913 16.3622 13.7867C16.6145 13.682 16.8849 13.6282 17.158 13.6282C17.4311 13.6282 17.7016 13.682 17.9538 13.7867C18.2061 13.8913 18.4353 14.0447 18.6282 14.238L20.3085 15.9183C20.5018 16.1113 20.6552 16.3404 20.7598 16.5927C20.8645 16.845 20.9183 17.1154 20.9183 17.3885C20.9183 17.6616 20.8645 17.9321 20.7598 18.1843C20.6552 18.4366 20.5018 18.6657 20.3085 18.8587L19.5919 19.5753C18.4323 20.7359 16.7411 21.2527 15.2016 20.6886C12.3856 19.6634 9.82765 18.0353 7.70655 15.9183Z" stroke="white" stroke-width="1.5" stroke-linejoin="round"/>
</svg>
