<svg width="42" height="42" viewBox="0 0 42 42" fill="none" xmlns="http://www.w3.org/2000/svg">
<path d="M12.6 6.30005C10.9291 6.30005 9.32669 6.9638 8.14522 8.14528C6.96374 9.32676 6.29999 10.9292 6.29999 12.6V29.4001C6.29999 31.0709 6.96374 32.6733 8.14522 33.8548C9.32669 35.0363 10.9291 35.7001 12.6 35.7001H22.932L21.0861 33.8416L20.8572 33.6H12.6C11.4861 33.6 10.4178 33.1576 9.63014 32.3699C8.84249 31.5822 8.39999 30.514 8.39999 29.4001V16.9218L19.95 16.8105V24.6772C20.484 23.777 21.1991 22.9976 22.05 22.3882V8.40005H29.4C30.5139 8.40005 31.5822 8.84255 32.3698 9.6302C33.1575 10.4179 33.6 11.4861 33.6 12.6V21.0568C34.2972 20.9707 35.007 20.9832 35.7 21.0946V12.6C35.7 10.9292 35.0362 9.32676 33.8548 8.14528C32.6733 6.9638 31.0709 6.30005 29.4 6.30005H12.6ZM8.39999 12.6C8.39999 11.4861 8.84249 10.4179 9.63014 9.6302C10.4178 8.84255 11.4861 8.40005 12.6 8.40005H19.95V14.7105L8.39999 14.8218V12.6ZM35.7 23.2323C36.6957 23.4572 37.6061 23.963 38.3229 24.6898C39.3315 25.7116 39.8971 27.0896 39.8971 28.5254C39.8971 29.9612 39.3315 31.3392 38.3229 32.361L31.1178 39.6208C30.9406 39.7977 30.7004 39.8971 30.45 39.8971C30.1996 39.8971 29.9594 39.7977 29.7822 39.6208L22.575 32.361C21.5657 31.3391 20.9997 29.9607 20.9997 28.5244C20.9997 27.088 21.5657 25.7096 22.575 24.6876C23.073 24.1841 23.6659 23.7844 24.3194 23.5116C24.973 23.2388 25.6741 23.0984 26.3823 23.0984C27.0905 23.0984 27.7916 23.2388 28.4451 23.5116C29.0987 23.7844 29.6916 24.1841 30.1896 24.6876L30.4479 24.948L30.7062 24.6898C31.3461 24.0424 32.1405 23.5689 33.0142 23.3139C33.888 23.0589 34.8124 23.0308 35.7 23.2323Z" fill="white"/>
</svg>
