<svg width="26" height="26" viewBox="0 0 26 26" fill="none" xmlns="http://www.w3.org/2000/svg">
<path d="M10.2895 6.2756C11.8278 4.21293 14.1408 3.6106 16.2684 4.19018C18.5651 4.81526 20.5844 6.78802 21.255 9.53535C21.2897 9.67618 21.3196 9.81702 21.3449 9.95785C20.3769 9.61291 19.324 9.58634 18.3398 9.88201C16.9455 8.85068 15.2187 8.67735 13.6836 9.24285C11.7607 9.95243 10.2592 11.7518 9.91142 14.016C9.46725 16.915 11.2331 19.5193 13.7302 21.7337L14.1505 22.0977C13.8114 22.1215 13.4669 22.0684 13.1376 21.998C12.9684 21.9616 12.8 21.9212 12.6328 21.8767L12.051 21.7142C6.87917 20.2593 3.41683 17.9832 2.42342 14.5815C1.63042 11.8667 2.39308 9.1486 4.07008 7.4586C5.62358 5.89318 7.92675 5.25835 10.2895 6.2756ZM12.0532 14.3443C12.5168 11.3196 16.0149 9.82893 17.8111 12.4246C17.8283 12.4487 17.8543 12.4651 17.8835 12.4702C17.9127 12.4752 17.9427 12.4686 17.9671 12.4517C20.5422 10.6273 23.3188 13.2241 22.7197 16.2249C22.373 17.9655 20.7588 19.4099 17.8772 20.5583L17.4059 20.7424L17.121 20.8594C16.8751 20.9558 16.6151 21.0328 16.38 20.9916C16.146 20.9504 15.9283 20.7879 15.73 20.6146L15.3942 20.3113C12.8881 18.1547 11.7744 16.1657 12.0532 14.3443Z" fill="black"/>
</svg>
