<svg width="32" height="32" viewBox="0 0 32 32" fill="none" xmlns="http://www.w3.org/2000/svg">
<path d="M18.7467 13.2532L17.3333 12.5998C17.2169 12.5468 17.1183 12.4614 17.0491 12.3538C16.9799 12.2463 16.9431 12.1211 16.9431 11.9932C16.9431 11.8653 16.9799 11.7401 17.0491 11.6325C17.1183 11.5249 17.2169 11.4395 17.3333 11.3865L18.7467 10.7332L19.4 9.33316C19.453 9.21677 19.5384 9.11808 19.646 9.04889C19.7536 8.97969 19.8788 8.9429 20.0067 8.9429C20.1346 8.9429 20.2598 8.97969 20.3674 9.04889C20.4749 9.11808 20.5603 9.21677 20.6133 9.33316L21.2667 10.7465L22.6667 11.3998C22.7831 11.4529 22.8817 11.5382 22.9509 11.6458C23.0201 11.7534 23.0569 11.8786 23.0569 12.0065C23.0569 12.1344 23.0201 12.2596 22.9509 12.3672C22.8817 12.4747 22.7831 12.5601 22.6667 12.6132L21.2533 13.2665L20.6 14.6665C20.547 14.7829 20.4616 14.8816 20.354 14.9508C20.2464 15.02 20.1212 15.0568 19.9933 15.0568C19.8654 15.0568 19.7402 15.02 19.6327 14.9508C19.5251 14.8816 19.4397 14.7829 19.3867 14.6665L18.7467 13.2532ZM5.93334 17.3332L6.58667 15.9198L8.00001 15.2665C8.1164 15.2135 8.21508 15.1281 8.28428 15.0205C8.35348 14.9129 8.39027 14.7877 8.39027 14.6598C8.39027 14.5319 8.35348 14.4067 8.28428 14.2991C8.21508 14.1916 8.1164 14.1062 8.00001 14.0532L6.58667 13.3998L5.93334 11.9998C5.88195 11.8836 5.79788 11.7847 5.69136 11.7153C5.58484 11.646 5.46046 11.609 5.33334 11.609C5.20622 11.609 5.08184 11.646 4.97532 11.7153C4.8688 11.7847 4.78473 11.8836 4.73334 11.9998L4.08001 13.4132L2.66667 14.0665C2.55028 14.1195 2.4516 14.2049 2.3824 14.3125C2.31321 14.4201 2.27641 14.5453 2.27641 14.6732C2.27641 14.8011 2.31321 14.9263 2.3824 15.0338C2.4516 15.1414 2.55028 15.2268 2.66667 15.2798L4.08001 15.9332L4.73334 17.3332C4.96001 17.8532 5.70667 17.8532 5.93334 17.3332ZM11.9467 10.6532L12.7867 8.78649L14.6533 7.94649C14.7697 7.89346 14.8684 7.80807 14.9376 7.7005C15.0068 7.59293 15.0436 7.46773 15.0436 7.33982C15.0436 7.21192 15.0068 7.08672 14.9376 6.97915C14.8684 6.87158 14.7697 6.78619 14.6533 6.73316L12.7867 5.89316L11.9467 4.02649C11.8936 3.9101 11.8083 3.81142 11.7007 3.74222C11.5931 3.67302 11.4679 3.63623 11.34 3.63623C11.2121 3.63623 11.0869 3.67302 10.9793 3.74222C10.8718 3.81142 10.7864 3.9101 10.7333 4.02649L9.89334 5.89316L8.02667 6.73316C7.91028 6.78619 7.8116 6.87158 7.7424 6.97915C7.67321 7.08672 7.63641 7.21192 7.63641 7.33982C7.63641 7.46773 7.67321 7.59293 7.7424 7.7005C7.8116 7.80807 7.91028 7.89346 8.02667 7.94649L9.89334 8.78649L10.7333 10.6532C10.96 11.1732 11.7067 11.1732 11.9467 10.6532ZM29.7867 11.0265C29.6585 10.8987 29.5057 10.7984 29.3376 10.7316C29.1694 10.6648 28.9894 10.6329 28.8086 10.6379C28.6277 10.6429 28.4497 10.6847 28.2855 10.7606C28.1213 10.8366 27.9742 10.9452 27.8533 11.0798L19.3333 20.6532L14.9467 16.2665C14.8233 16.1429 14.6768 16.0448 14.5155 15.9779C14.3542 15.911 14.1813 15.8766 14.0067 15.8766C13.8321 15.8766 13.6591 15.911 13.4978 15.9779C13.3365 16.0448 13.19 16.1429 13.0667 16.2665L5.01334 24.3332C4.46667 24.8798 4.46667 25.7865 5.01334 26.3332C5.56001 26.8798 6.46667 26.8798 7.01334 26.3332L14.0133 19.3198L18.3467 23.6532C18.8933 24.1998 19.7733 24.1732 20.28 23.5998L29.84 12.8398C30.3067 12.3198 30.28 11.5198 29.7867 11.0265Z" fill="#85CC16"/>
</svg>
