<svg width="42" height="42" viewBox="0 0 42 42" fill="none" xmlns="http://www.w3.org/2000/svg">
<circle cx="21" cy="21" r="21" fill="#A3E635"/>
<path d="M18.4523 25.4603L14.6386 22.372C14.4331 22.2056 14.1699 22.1276 13.9069 22.1553C13.644 22.1829 13.4027 22.3139 13.2363 22.5194C13.0699 22.7249 12.992 22.9881 13.0196 23.251C13.0333 23.3812 13.0725 23.5075 13.135 23.6225C13.1974 23.7376 13.282 23.8392 13.3837 23.9216L17.9777 27.6418C18.4064 27.9889 19.0329 27.9231 19.38 27.4944L28.7962 15.8665C28.9626 15.661 29.0405 15.3978 29.0129 15.1348C28.9852 14.8718 28.8543 14.6306 28.6488 14.4642C28.4433 14.2978 28.1801 14.2198 27.9171 14.2475C27.6541 14.2751 27.4129 14.4061 27.2465 14.6116L18.4523 25.4603Z" fill="white"/>
</svg>
