<svg width="26" height="26" viewBox="0 0 26 26" fill="none" xmlns="http://www.w3.org/2000/svg">
<path fill-rule="evenodd" clip-rule="evenodd" d="M11.141 1.52319C11.7244 1.2563 12.3584 1.11816 13 1.11816C13.6416 1.11816 14.2756 1.2563 14.859 1.52319C19.0656 3.44936 22.1991 6.20427 23.7082 7.69061C24.5218 8.49173 24.9568 9.5599 25.018 10.6622C25.0927 12.0201 25.1875 14.2226 25.1875 16.7066C25.1875 18.4595 25.1404 20.0715 25.0862 21.3455C25.0467 22.3243 24.6376 23.2517 23.9413 23.9407C23.2449 24.6297 22.3132 25.029 21.3341 25.0581C19.4502 25.1231 16.6503 25.1875 13 25.1875C9.34971 25.1875 6.54983 25.1225 4.66592 25.0581C3.68677 25.029 2.75507 24.6297 2.05874 23.9407C1.36241 23.2517 0.953256 22.3243 0.913792 21.3455C0.847564 19.8001 0.813792 18.2535 0.8125 16.7066C0.8125 14.2226 0.907292 12.0201 0.982042 10.6622C1.04325 9.5599 1.47821 8.49173 2.29179 7.69061C3.80088 6.20427 6.93496 3.44936 11.141 1.52319ZM8.66667 19.5C8.37935 19.5 8.1038 19.6142 7.90063 19.8173C7.69747 20.0205 7.58333 20.296 7.58333 20.5834C7.58333 20.8707 7.69747 21.1462 7.90063 21.3494C8.1038 21.5526 8.37935 21.6667 8.66667 21.6667H17.3333C17.6207 21.6667 17.8962 21.5526 18.0994 21.3494C18.3025 21.1462 18.4167 20.8707 18.4167 20.5834C18.4167 20.296 18.3025 20.0205 18.0994 19.8173C17.8962 19.6142 17.6207 19.5 17.3333 19.5H8.66667Z" fill="black"/>
</svg>
