<svg width="116" height="116" viewBox="0 0 116 116" fill="none" xmlns="http://www.w3.org/2000/svg">
<g clip-path="url(#clip0_37_205)">
<path d="M49.2547 6.21484C42.9336 6.32133 37.2242 10.0913 34.6414 15.9208L65.5672 25.262C66.9266 17.1533 62.0555 9.29156 54.2164 6.90586C52.8117 6.47992 51.3391 6.24656 49.8664 6.21484H49.2547ZM33.4633 19.8267C32.0812 27.958 36.9523 35.8424 44.8141 38.2213C52.6984 40.6002 61.1039 36.7034 64.4117 29.1588L33.4633 19.8267ZM93.6156 29.8612C87.8836 29.8838 81.7891 32.6479 77.1898 39.1502L48.9148 79.2291C41.325 89.9682 44.6328 101.206 52.1094 106.507C59.6086 111.831 71.2766 111.22 78.8664 100.481L107.119 60.4245C114.709 49.6627 111.401 38.4479 103.924 33.1237C101.115 31.1299 97.7391 29.9745 94.182 29.8612H93.6156ZM93.2078 33.7807C93.5023 33.7807 93.7969 33.7807 94.0687 33.8034C96.8102 33.9166 99.393 34.8909 101.568 36.4541C107.391 40.5776 110.313 48.8018 103.766 58.0682L89.1523 78.7987C81.0414 76.6237 70.6195 69.2151 65.8844 62.2596L80.543 41.5065C84.3719 36.0916 88.9258 33.8713 93.2078 33.7807ZM20.6738 51.0448C18.4943 51.0674 16.3442 51.5205 14.3459 52.4041C6.84445 55.6893 2.94078 64.0721 5.22906 71.9565L34.8453 59.0198C31.8773 54.0127 26.4852 50.9768 20.6738 51.0448ZM36.4539 62.7354L6.84218 75.6948C11.0223 82.8088 19.8242 85.6635 27.3687 82.3784C34.8906 79.0705 38.7875 70.6424 36.4539 62.7354Z" fill="#656F67" fill-opacity="0.4"/>
<g clip-path="url(#clip1_37_205)">
<path d="M6.9795 22.1008C6.95996 20.2516 9.222 19.3956 10.4385 20.7092L10.5484 20.8401L12.0959 22.7961C12.4507 23.2447 12.8975 23.6121 13.4063 23.8733C13.9151 24.1346 14.4741 24.2836 15.0454 24.3105L15.277 24.3146L17.7707 24.2878C19.6199 24.2682 20.4759 26.5303 19.1632 27.7464L19.0324 27.8563L17.0763 29.4038C16.6275 29.7586 16.26 30.2054 15.9985 30.7143C15.7371 31.2232 15.5879 31.7822 15.561 32.3537L15.5566 32.5843L15.5837 35.079C15.6032 36.9282 13.3412 37.7842 12.126 36.4712L12.0142 36.341L10.4676 34.3846C10.1129 33.9358 9.66604 33.5682 9.15717 33.3068C8.6483 33.0454 8.08927 32.8962 7.51781 32.8692L7.28716 32.8649L4.79346 32.8917C2.94327 32.9115 2.08729 30.6495 3.40127 29.434L3.53145 29.3222L5.4878 27.7756C5.93643 27.4208 6.30376 26.974 6.56501 26.4652C6.82626 25.9563 6.97536 25.3974 7.00224 24.8261L7.0066 24.5955L6.9795 22.1008ZM15.1573 15.5523C15.3337 15.4899 15.5241 15.4783 15.7067 15.5187C15.8894 15.5591 16.057 15.65 16.1907 15.7809L16.2749 15.8752L16.9469 16.7259L18.0318 16.7135C18.2298 16.7111 18.4241 16.7675 18.59 16.8756C18.7559 16.9836 18.886 17.1385 18.9638 17.3206C19.0416 17.5027 19.0635 17.7038 19.0269 17.8984C18.9903 18.093 18.8967 18.2723 18.7581 18.4137L18.6628 18.4983L17.8122 19.1703L17.8245 20.2552C17.8269 20.4532 17.7704 20.6474 17.6622 20.8132C17.554 20.9791 17.3991 21.1091 17.2169 21.1867C17.0348 21.2644 16.8337 21.2863 16.6392 21.2496C16.4446 21.2129 16.2653 21.1192 16.1241 20.9805L16.0398 20.8862L15.3678 20.0356L14.2829 20.0479C14.0849 20.0504 13.8906 19.994 13.7247 19.8859C13.5588 19.7778 13.4287 19.6229 13.3509 19.4408C13.2732 19.2587 13.2512 19.0576 13.2878 18.8631C13.3244 18.6685 13.418 18.4891 13.5566 18.3478L13.6519 18.2632L14.5025 17.5912L14.4902 16.5063C14.4879 16.2975 14.551 16.0933 14.6706 15.9222C14.7903 15.7511 14.9605 15.6218 15.1573 15.5523Z" fill="#C1C5C2"/>
</g>
</g>
<defs>
<clipPath id="clip0_37_205">
<rect width="116" height="116" fill="white"/>
</clipPath>
<clipPath id="clip1_37_205">
<rect width="24" height="24" fill="white" transform="translate(-3.42267 20) rotate(-19.4715)"/>
</clipPath>
</defs>
</svg>
