<svg width="35" height="35" viewBox="0 0 35 35" fill="none" xmlns="http://www.w3.org/2000/svg">
<path d="M14.8613 1.875C12.9541 1.90713 11.2314 3.04463 10.4521 4.80351L19.7832 7.62197C20.1934 5.17539 18.7236 2.80332 16.3584 2.0835C15.9346 1.95498 15.4902 1.88457 15.0459 1.875H14.8613ZM10.0967 5.98203C9.67969 8.43545 11.1494 10.8144 13.5215 11.5321C15.9004 12.2499 18.4365 11.0741 19.4346 8.79775L10.0967 5.98203ZM28.2461 9.00967C26.5166 9.0165 24.6777 9.85049 23.29 11.8124L14.7588 23.9052C12.4687 27.1454 13.4668 30.536 15.7227 32.1356C17.9853 33.7421 21.5059 33.5575 23.7959 30.3173L32.3203 18.2313C34.6103 14.9843 33.6123 11.6005 31.3564 9.99404C30.5088 9.39248 29.4902 9.04385 28.417 9.00967H28.2461ZM28.123 10.1923C28.2119 10.1923 28.3008 10.1923 28.3828 10.1991C29.21 10.2333 29.9893 10.5272 30.6455 10.9989C32.4023 12.2431 33.2842 14.7245 31.3086 17.5204L26.8994 23.7753C24.4521 23.119 21.3076 20.8837 19.8789 18.7851L24.3018 12.5233C25.457 10.8895 26.8311 10.2196 28.123 10.1923ZM6.23779 15.4013C5.58017 15.4081 4.93144 15.5448 4.32851 15.8114C2.06514 16.8026 0.887303 19.3319 1.57773 21.7108L10.5137 17.8075C9.61816 16.2968 7.99121 15.3808 6.23779 15.4013ZM10.999 18.9286L2.06445 22.8388C3.32568 24.9853 5.98144 25.8466 8.25781 24.8554C10.5273 23.8573 11.7031 21.3144 10.999 18.9286Z" fill="black"/>
</svg>
