<svg width="36" height="36" viewBox="0 0 36 36" fill="none" xmlns="http://www.w3.org/2000/svg">
<path d="M27.5625 33.1125L29.2875 31.3875L22.6125 24.7125L20.8875 26.4375C19.9625 27.3625 19.5 28.475 19.5 29.775C19.5 31.075 19.9625 32.1875 20.8875 33.1125C21.8125 34.0375 22.925 34.5 24.225 34.5C25.525 34.5 26.6375 34.0375 27.5625 33.1125ZM31.3875 29.2875L33.1125 27.5625C34.0375 26.6375 34.5 25.525 34.5 24.225C34.5 22.925 34.0375 21.8125 33.1125 20.8875C32.1875 19.9625 31.075 19.5 29.775 19.5C28.475 19.5 27.3625 19.9625 26.4375 20.8875L24.7125 22.6125L31.3875 29.2875ZM10.5 13.5H25.5V10.5H10.5V13.5ZM18.807 6.057C19.019 5.844 19.125 5.575 19.125 5.25C19.125 4.925 19.0185 4.6565 18.8055 4.4445C18.5925 4.2325 18.324 4.126 18 4.125C17.676 4.124 17.4075 4.2305 17.1945 4.4445C16.9815 4.6585 16.875 4.927 16.875 5.25C16.875 5.573 16.9815 5.842 17.1945 6.057C17.4075 6.272 17.676 6.378 18 6.375C18.324 6.372 18.593 6.267 18.807 6.057ZM16.6875 31.5H7.5C6.675 31.5 5.969 31.2065 5.382 30.6195C4.795 30.0325 4.501 29.326 4.5 28.5V7.5C4.5 6.675 4.794 5.969 5.382 5.382C5.97 4.795 6.676 4.501 7.5 4.5H13.8C14.125 3.6 14.669 2.875 15.432 2.325C16.195 1.775 17.051 1.5 18 1.5C18.949 1.5 19.8055 1.775 20.5695 2.325C21.3335 2.875 21.877 3.6 22.2 4.5H28.5C29.325 4.5 30.0315 4.794 30.6195 5.382C31.2075 5.97 31.501 6.676 31.5 7.5V16.6875C30.45 16.4375 29.4065 16.4185 28.3695 16.6305C27.3325 16.8425 26.376 17.237 25.5 17.814V16.5H10.5V19.5H23.5875L20.5875 22.5H10.5V25.5H17.8125C17.2375 26.375 16.8435 27.3315 16.6305 28.3695C16.4175 29.4075 16.437 30.451 16.689 31.5" fill="white" fill-opacity="0.3"/>
</svg>
