<svg width="24" height="24" viewBox="0 0 24 24" fill="none" xmlns="http://www.w3.org/2000/svg">
<path fill-rule="evenodd" clip-rule="evenodd" d="M6.53518 6.80592C7.05967 6.40345 7.65831 6.10824 8.2969 5.93714C8.93549 5.76604 9.60152 5.7224 10.257 5.80872C10.4994 5.84052 10.713 5.95842 10.8612 6.14622C10.9886 6.31028 11.0599 6.51095 11.0646 6.71862C11.0696 6.91198 11.0246 7.10337 10.9339 7.27421C10.8432 7.44504 10.7098 7.58952 10.5468 7.69362C10.2055 7.90855 9.91317 8.19266 9.68853 8.52759C9.46389 8.86252 9.31199 9.24083 9.24261 9.63811C9.17324 10.0354 9.18794 10.4428 9.28577 10.834C9.3836 11.2253 9.56238 11.5917 9.81058 11.9095C9.90368 12.0286 9.94841 12.1784 9.93584 12.329C9.92327 12.4796 9.85432 12.6199 9.74278 12.7219C9.39624 13.0389 9.12 13.425 8.93188 13.8553C8.86927 13.9984 8.75336 14.1114 8.60878 14.1703C8.1939 14.3395 7.81298 14.5822 7.48438 14.8867C7.38421 14.9796 7.25534 15.0355 7.11907 15.0452C6.98281 15.0549 6.84731 15.0179 6.73498 14.9401C5.97368 14.4134 5.37238 13.6869 4.99718 12.8406C4.62197 11.9943 4.48741 11.0609 4.60828 10.1431C4.69456 9.48757 4.90914 8.85544 5.23976 8.28284C5.57038 7.71023 6.01057 7.20837 6.53518 6.80592Z" fill="black"/>
<path d="M18.2253 11.3803C19.0499 11.8552 19.6523 12.638 19.9002 13.5568C20.0328 14.0506 20.0567 14.5621 19.9763 15.058C20.4609 15.2826 20.8712 15.641 21.1589 16.0911C21.4465 16.5411 21.5996 17.064 21.6 17.5981C21.5997 17.9662 21.5269 18.3307 21.3857 18.6707C21.2445 19.0107 21.0377 19.3195 20.7771 19.5796C20.2506 20.1044 19.5377 20.3993 18.7944 20.3998H18.1827L18.1761 20.4001H10.0059C9.26256 20.3994 8.54978 20.1044 8.02345 19.5796C7.76277 19.3196 7.55586 19.0108 7.41456 18.6709C7.27326 18.331 7.20034 17.9665 7.19995 17.5984C7.19995 16.8553 7.49695 16.1416 8.02315 15.6169C8.445 15.1962 8.9896 14.9204 9.57835 14.8294C9.59155 14.7436 9.60925 14.6586 9.63145 14.5744C9.71416 14.2605 9.85816 13.9661 10.0552 13.7082C10.2521 13.4502 10.4982 13.2338 10.7793 13.0714C11.1352 12.8673 11.5364 12.755 11.9466 12.7447C12.3568 12.7344 12.7631 12.8263 13.1289 13.0123L13.3125 12.6949C13.7907 11.8696 14.5768 11.2679 15.4983 11.0218C16.4184 10.7758 17.4006 10.9057 18.2253 11.3803Z" fill="black"/>
</svg>
