<svg width="26" height="26" viewBox="0 0 26 26" fill="none" xmlns="http://www.w3.org/2000/svg">
<path d="M11.375 6.26779C11.375 7.19131 11.0081 8.07701 10.3551 8.73004C9.70208 9.38306 8.81639 9.74993 7.89286 9.74993C6.96934 9.74993 6.08365 9.38306 5.43062 8.73004C4.77759 8.07701 4.41072 7.19131 4.41072 6.26779C4.41072 5.34427 4.77759 4.45857 5.43062 3.80554C6.08365 3.15251 6.96934 2.78564 7.89286 2.78564C8.81639 2.78564 9.70208 3.15251 10.3551 3.80554C11.0081 4.45857 11.375 5.34427 11.375 6.26779ZM4.87501 11.1428C4.32089 11.1428 3.78948 11.3629 3.39766 11.7547C3.00584 12.1465 2.78572 12.678 2.78572 13.2321V18.1071C2.78572 19.4616 3.32379 20.7606 4.28157 21.7184C5.23934 22.6761 6.53837 23.2142 7.89286 23.2142C9.24736 23.2142 10.5464 22.6761 11.5042 21.7184C12.4619 20.7606 13 19.4616 13 18.1071V13.2321C13 12.678 12.7799 12.1465 12.3881 11.7547C11.9963 11.3629 11.4648 11.1428 10.9107 11.1428H4.87501ZM13.0009 9.74993C12.3518 9.75123 11.7154 9.57008 11.1642 9.22715C11.8996 8.41714 12.3063 7.36183 12.3045 6.26779C12.3063 5.17375 11.8996 4.11844 11.1642 3.30843C11.622 3.02455 12.1394 2.85075 12.6758 2.80071C13.2121 2.75066 13.7528 2.82573 14.2552 3.02001C14.7576 3.21429 15.2081 3.52249 15.5712 3.92036C15.9344 4.31823 16.2003 4.79493 16.348 5.31296C16.4957 5.83098 16.5212 6.37622 16.4225 6.90577C16.3238 7.43533 16.1036 7.93477 15.7792 8.36481C15.4548 8.79485 15.035 9.14376 14.553 9.38411C14.0709 9.62445 13.5396 9.74968 13.0009 9.74993ZM13.9295 13.2321C13.9295 12.4214 13.6101 11.6851 13.0891 11.1428H16.0188C16.5729 11.1428 17.1043 11.3629 17.4961 11.7547C17.888 12.1465 18.1081 12.678 18.1081 13.2321V18.1071C18.1083 18.9099 17.9192 19.7014 17.5563 20.4175C17.1933 21.1336 16.6666 21.754 16.019 22.2284C15.3714 22.7029 14.621 23.0179 13.8288 23.1481C13.0366 23.2782 12.2249 23.2197 11.4595 22.9774C12.2256 22.4174 12.8486 21.6844 13.2778 20.8381C13.707 19.9918 13.9303 19.056 13.9295 18.1071V13.2321ZM16.2714 9.22622C16.7987 9.55358 17.4039 9.73405 18.0245 9.74893C18.645 9.76381 19.2582 9.61257 19.8006 9.31086C20.343 9.00915 20.7949 8.56794 21.1096 8.03291C21.4242 7.49788 21.5901 6.88847 21.5901 6.26779C21.5901 5.6471 21.4242 5.0377 21.1096 4.50267C20.7949 3.96764 20.343 3.52643 19.8006 3.22472C19.2582 2.92301 18.645 2.77176 18.0245 2.78665C17.4039 2.80153 16.7987 2.98199 16.2714 3.30936C17.0066 4.11913 17.4132 5.17407 17.4116 6.26779C17.4132 7.36151 17.0066 8.41645 16.2714 9.22622ZM16.5666 22.9774C17.3321 23.2199 18.1439 23.2785 18.9362 23.1485C19.7285 23.0184 20.479 22.7034 21.1268 22.2289C21.7745 21.7545 22.3013 21.134 22.6643 20.4178C23.0274 19.7017 23.2164 18.91 23.2162 18.1071V13.2321C23.2162 12.678 22.996 12.1465 22.6042 11.7547C22.2124 11.3629 21.681 11.1428 21.1269 11.1428H18.1963C18.7163 11.6851 19.0366 12.4214 19.0366 13.2321V18.1071C19.0375 19.056 18.8142 19.9918 18.385 20.8381C17.9557 21.6844 17.3327 22.4174 16.5666 22.9774Z" fill="black"/>
</svg>
